<?xml version="1.0" standalone="no"?>
<!DOCTYPE svg PUBLIC "-//W3C//DTD SVG 20010904//EN"
 "http://www.w3.org/TR/2001/REC-SVG-20010904/DTD/svg10.dtd">
<svg version="1.0" xmlns="http://www.w3.org/2000/svg"
 width="5315.000000pt" height="5315.000000pt" viewBox="0 0 5315.000000 5315.000000"
 preserveAspectRatio="xMidYMid meet">

<g transform="translate(0.000000,5315.000000) scale(0.100000,-0.100000)"
fill="#000000" stroke="none">
<path d="M26205 45143 c-489 -23 -918 -67 -1351 -138 -1844 -302 -3476 -1062
-4742 -2208 -164 -149 -529 -518 -663 -672 -805 -923 -1363 -1977 -1652 -3120
-222 -875 -410 -2554 -487 -4350 -26 -590 -22 -1595 7 -1982 l6 -82 96 78
c577 466 955 649 1262 610 45 -5 116 -21 159 -35 91 -28 82 -9 100 -209 29
-319 98 -822 156 -1140 168 -919 423 -1533 694 -1670 90 -46 86 -53 94 173 49
1416 155 3113 212 3389 45 217 145 412 322 623 169 202 335 342 966 815 259
193 524 395 589 448 700 567 1199 1164 1547 1851 l65 128 270 -5 c348 -7 589
-38 910 -118 767 -191 1543 -587 2510 -1279 259 -186 608 -448 1130 -850 748
-576 1124 -851 1545 -1129 1156 -766 2141 -1158 3159 -1258 l183 -18 -6 -28
c-3 -15 -15 -90 -26 -165 -148 -1027 -52 -1948 274 -2602 35 -69 80 -152 101
-185 50 -78 116 -165 124 -165 4 0 13 88 20 196 68 1095 226 2100 404 2572 91
243 252 427 462 529 118 56 225 83 360 90 224 11 458 -57 625 -182 l35 -26 7
26 c8 32 44 366 57 540 51 649 49 1563 -5 2390 -80 1253 -281 2654 -490 3415
-316 1152 -844 2148 -1598 3010 -234 267 -620 635 -921 876 -698 561 -1553
1019 -2478 1329 -907 304 -1832 470 -2917 525 -172 9 -955 11 -1115 3z"/>
<path d="M21325 20754 c-44 -14 -298 -92 -565 -174 -1841 -565 -3630 -1183
-4969 -1717 -1792 -713 -2854 -1291 -3206 -1744 -61 -78 -96 -151 -155 -324
-302 -887 -782 -3206 -1409 -6810 -123 -706 -331 -1944 -331 -1969 0 -15 180
-16 2094 -16 l2094 0 6 28 c3 15 37 218 76 452 218 1313 502 2920 710 4025 45
237 87 464 95 505 50 273 247 1259 354 1765 235 1113 464 1983 587 2225 277
548 1774 1325 4429 2300 411 151 803 290 813 289 4 0 100 -188 214 -417 916
-1843 1798 -3028 2511 -3372 135 -65 179 -74 248 -54 73 22 144 70 239 160
178 171 318 358 726 971 474 713 598 867 724 903 28 8 36 5 72 -28 88 -80 223
-272 831 -1187 445 -670 649 -949 766 -1043 59 -48 61 -48 176 -10 315 104
681 408 1076 893 264 324 631 887 932 1430 368 664 761 1486 1099 2295 87 209
205 500 215 530 3 8 -54 -97 -127 -235 -1167 -2211 -2326 -3602 -3218 -3861
-80 -23 -86 -23 -118 -8 -48 23 -145 131 -278 309 -149 199 -270 375 -690
1009 -194 292 -382 572 -418 623 l-65 92 -111 -69 c-62 -39 -116 -70 -121 -70
-6 0 -65 36 -132 81 -67 44 -126 82 -133 85 -17 6 -142 -171 -444 -625 -424
-640 -552 -814 -741 -1002 -93 -91 -132 -123 -190 -152 -124 -62 -180 -51
-435 81 -646 335 -1437 1183 -2272 2437 -264 396 -561 882 -792 1295 -38 68
-73 125 -78 126 -5 1 -45 -9 -89 -22z"/>
</g>
</svg>
